<?xml version="1.0" encoding="UTF-8" standalone="no"?>
<svg
   xmlns:dc="http://purl.org/dc/elements/1.1/"
   xmlns:cc="http://creativecommons.org/ns#"
   xmlns:rdf="http://www.w3.org/1999/02/22-rdf-syntax-ns#"
   xmlns:svg="http://www.w3.org/2000/svg"
   xmlns="http://www.w3.org/2000/svg"
   viewBox="0 0 1088.276 365.79333"
   height="365.79333"
   width="1088.276"
   xml:space="preserve"
   id="svg2"
   version="1.1"><metadata
     id="metadata8"><rdf:RDF><cc:Work
         rdf:about=""><dc:format>image/svg+xml</dc:format><dc:type
           rdf:resource="http://purl.org/dc/dcmitype/StillImage" /></cc:Work></rdf:RDF></metadata><defs
     id="defs6"><clipPath
       id="clipPath18"
       clipPathUnits="userSpaceOnUse"><path
         id="path16"
         d="M 0,274.345 H 816.207 V 0 H 0 Z" /></clipPath></defs><g
     transform="matrix(1.3333333,0,0,-1.3333333,0,365.79333)"
     id="g10"><g
       id="g12"><g
         clip-path="url(#clipPath18)"
         id="g14"><g
           transform="translate(738.691,75.1713)"
           id="g20"><path
             id="path22"
             style="fill:#61b22f;fill-opacity:1;fill-rule:nonzero;stroke:none"
             d="m 0,0 c -1.566,-0.639 -3.914,-1.182 -7.044,-1.629 -1.773,-0.256 -3.027,-0.544 -3.762,-0.863 -0.735,-0.32 -1.302,-0.787 -1.701,-1.401 -0.4,-0.616 -0.599,-1.298 -0.599,-2.049 0,-1.15 0.435,-2.109 1.306,-2.875 0.87,-0.767 2.144,-1.15 3.821,-1.15 1.661,0 3.139,0.363 4.433,1.09 1.294,0.727 2.244,1.721 2.851,2.983 C -0.232,-4.92 0,-3.482 0,-1.581 Z m 1.222,-12.771 c -0.447,0.895 -0.735,1.941 -0.863,3.139 -1.597,-1.358 -3.135,-2.316 -4.612,-2.875 -1.478,-0.559 -3.063,-0.839 -4.756,-0.839 -2.795,0 -4.944,0.683 -6.445,2.049 -1.502,1.366 -2.252,3.111 -2.252,5.235 0,1.246 0.283,2.384 0.85,3.414 0.567,1.031 1.31,1.857 2.228,2.48 0.919,0.623 1.953,1.094 3.103,1.414 0.847,0.223 2.124,0.439 3.834,0.647 3.482,0.415 6.046,0.91 7.691,1.485 0.016,0.591 0.024,0.967 0.024,1.126 0,1.757 -0.407,2.995 -1.222,3.714 C -2.3,9.192 -3.938,9.68 -6.11,9.68 -8.139,9.68 -9.636,9.324 -10.602,8.614 -11.569,7.903 -12.284,6.645 -12.747,4.84 l -4.217,0.575 c 0.384,1.805 1.014,3.262 1.893,4.373 0.878,1.11 2.148,1.964 3.81,2.563 1.661,0.599 3.586,0.899 5.774,0.899 2.172,0 3.937,-0.256 5.295,-0.767 C 1.166,11.972 2.164,11.329 2.803,10.554 3.442,9.779 3.889,8.801 4.145,7.619 4.289,6.884 4.361,5.559 4.361,3.642 v -5.75 c 0,-4.01 0.091,-6.546 0.275,-7.608 0.184,-1.062 0.547,-2.081 1.09,-3.055 z m -27.621,25.446 h 4.313 V -12.77 h -4.313 z m 0,9.68 h 4.313 v -4.96 h -4.313 z M -50.133,0.407 c 0,-3.338 0.663,-5.774 1.989,-7.307 1.326,-1.534 2.987,-2.301 4.984,-2.301 1.98,0 3.642,0.763 4.984,2.289 1.341,1.525 2.012,3.917 2.012,7.176 0,3.114 -0.691,5.462 -2.072,7.044 -1.382,1.581 -3.047,2.372 -4.996,2.372 -1.917,0 -3.546,-0.779 -4.888,-2.336 -1.341,-1.558 -2.013,-3.87 -2.013,-6.937 m -3.569,-15.286 4.193,-0.623 c 0.175,-1.294 0.662,-2.236 1.461,-2.827 1.07,-0.799 2.532,-1.198 4.385,-1.198 1.996,0 3.538,0.399 4.624,1.198 1.086,0.798 1.821,1.916 2.204,3.354 0.224,0.879 0.328,2.723 0.312,5.535 -1.885,-2.221 -4.233,-3.331 -7.044,-3.331 -3.499,0 -6.206,1.262 -8.123,3.786 -1.917,2.524 -2.875,5.55 -2.875,9.081 0,2.428 0.439,4.668 1.318,6.721 0.878,2.052 2.152,3.637 3.821,4.756 1.669,1.118 3.63,1.677 5.883,1.677 3.002,0 5.478,-1.214 7.427,-3.642 v 3.067 h 3.978 V -9.32 c 0,-3.962 -0.404,-6.769 -1.21,-8.422 -0.807,-1.654 -2.085,-2.959 -3.834,-3.918 -1.749,-0.958 -3.902,-1.437 -6.457,-1.437 -3.035,0 -5.487,0.682 -7.356,2.048 -1.869,1.366 -2.772,3.423 -2.707,6.17 m -23.299,14.831 c 0,-3.258 0.711,-5.699 2.132,-7.32 1.422,-1.621 3.211,-2.432 5.368,-2.432 2.14,0 3.921,0.815 5.343,2.444 1.421,1.629 2.132,4.113 2.132,7.452 0,3.146 -0.715,5.53 -2.145,7.152 -1.429,1.621 -3.207,2.432 -5.33,2.432 -2.157,0 -3.946,-0.807 -5.368,-2.42 -1.421,-1.614 -2.132,-4.049 -2.132,-7.308 m -4.433,0 c 0,4.712 1.31,8.202 3.93,10.471 2.188,1.884 4.856,2.827 8.003,2.827 3.498,0 6.357,-1.146 8.577,-3.438 2.22,-2.293 3.331,-5.46 3.331,-9.501 0,-3.274 -0.492,-5.85 -1.474,-7.727 -0.982,-1.877 -2.412,-3.334 -4.289,-4.372 -1.877,-1.038 -3.925,-1.558 -6.145,-1.558 -3.563,0 -6.442,1.142 -8.638,3.427 -2.197,2.284 -3.295,5.574 -3.295,9.871 m -8.82,22.403 h 4.313 V -12.77 h -4.313 z m -23.841,-22.403 c 0,-3.258 0.71,-5.699 2.132,-7.32 1.422,-1.621 3.211,-2.432 5.367,-2.432 2.141,0 3.922,0.815 5.343,2.444 1.422,1.629 2.133,4.113 2.133,7.452 0,3.146 -0.715,5.53 -2.145,7.152 -1.429,1.621 -3.206,2.432 -5.331,2.432 -2.156,0 -3.945,-0.807 -5.367,-2.42 -1.422,-1.614 -2.132,-4.049 -2.132,-7.308 m -4.433,0 c 0,4.712 1.31,8.202 3.93,10.471 2.188,1.884 4.855,2.827 8.002,2.827 3.499,0 6.358,-1.146 8.578,-3.438 2.22,-2.293 3.33,-5.46 3.33,-9.501 0,-3.274 -0.491,-5.85 -1.473,-7.727 -0.982,-1.877 -2.412,-3.334 -4.289,-4.372 -1.877,-1.038 -3.926,-1.558 -6.146,-1.558 -3.562,0 -6.441,1.142 -8.637,3.427 -2.197,2.284 -3.295,5.574 -3.295,9.871 m -25.036,-12.723 v 25.446 h 3.881 V 9.057 c 1.869,2.795 4.568,4.193 8.099,4.193 1.533,0 2.943,-0.276 4.229,-0.827 1.285,-0.551 2.248,-1.274 2.887,-2.168 0.638,-0.895 1.086,-1.957 1.342,-3.187 0.159,-0.799 0.239,-2.196 0.239,-4.193 V -12.771 H -127.2 V 2.707 c 0,1.757 -0.167,3.071 -0.503,3.942 -0.335,0.87 -0.931,1.565 -1.785,2.084 -0.855,0.519 -1.857,0.779 -3.007,0.779 -1.837,0 -3.422,-0.583 -4.756,-1.749 -1.334,-1.166 -2,-3.378 -2,-6.637 v -13.897 z m -7.719,9.321 4.241,-0.551 c -0.463,-2.923 -1.649,-5.212 -3.558,-6.865 -1.909,-1.653 -4.253,-2.48 -7.032,-2.48 -3.483,0 -6.282,1.138 -8.398,3.415 -2.116,2.276 -3.174,5.538 -3.174,9.787 0,2.747 0.455,5.152 1.365,7.212 0.911,2.061 2.296,3.606 4.157,4.636 1.861,1.031 3.885,1.546 6.074,1.546 2.763,0 5.023,-0.699 6.78,-2.097 1.758,-1.398 2.884,-3.382 3.379,-5.954 l -4.193,-0.647 c -0.399,1.709 -1.106,2.995 -2.12,3.858 -1.015,0.863 -2.241,1.294 -3.678,1.294 -2.173,0 -3.938,-0.779 -5.295,-2.336 -1.358,-1.558 -2.037,-4.022 -2.037,-7.392 0,-3.418 0.655,-5.902 1.965,-7.451 1.309,-1.55 3.019,-2.325 5.127,-2.325 1.693,0 3.106,0.519 4.241,1.558 1.134,1.038 1.853,2.635 2.156,4.792 m -40.063,5.846 h 14.208 c -0.192,2.14 -0.735,3.746 -1.629,4.816 -1.374,1.661 -3.155,2.492 -5.343,2.492 -1.981,0 -3.646,-0.663 -4.996,-1.989 -1.35,-1.326 -2.097,-3.099 -2.24,-5.319 m 14.16,-6.972 4.457,-0.551 c -0.703,-2.604 -2.005,-4.625 -3.906,-6.062 -1.901,-1.438 -4.329,-2.157 -7.284,-2.157 -3.722,0 -6.673,1.146 -8.853,3.438 -2.18,2.292 -3.27,5.507 -3.27,9.644 0,4.281 1.101,7.604 3.306,9.968 2.204,2.364 5.063,3.546 8.578,3.546 3.402,0 6.181,-1.158 8.338,-3.474 2.156,-2.317 3.234,-5.575 3.234,-9.776 0,-0.256 -0.008,-0.639 -0.024,-1.15 h -18.976 c 0.16,-2.796 0.95,-4.936 2.372,-6.421 1.422,-1.486 3.195,-2.229 5.319,-2.229 1.582,0 2.931,0.416 4.049,1.246 1.118,0.831 2.005,2.157 2.66,3.978 m -22.438,-4.505 c 0.479,0 1.11,0.056 1.893,0.168 l 0.623,-3.81 c -1.214,-0.255 -2.301,-0.383 -3.259,-0.383 -1.566,0 -2.779,0.248 -3.642,0.743 -0.863,0.495 -1.47,1.146 -1.821,1.952 -0.351,0.807 -0.527,2.504 -0.527,5.092 V 9.32 h -3.163 v 3.355 h 3.163 v 6.301 l 4.289,2.588 v -8.889 h 4.337 V 9.32 h -4.337 V -5.559 c 0,-1.23 0.075,-2.021 0.228,-2.372 0.151,-0.352 0.399,-0.631 0.742,-0.839 0.344,-0.207 0.835,-0.311 1.474,-0.311 m -45.189,11.477 h 14.208 c -0.192,2.14 -0.735,3.746 -1.629,4.816 -1.374,1.661 -3.155,2.492 -5.343,2.492 -1.981,0 -3.646,-0.663 -4.996,-1.989 -1.35,-1.326 -2.096,-3.099 -2.24,-5.319 m 14.16,-6.972 4.457,-0.551 c -0.703,-2.604 -2.005,-4.625 -3.906,-6.062 -1.901,-1.438 -4.329,-2.157 -7.283,-2.157 -3.723,0 -6.674,1.146 -8.854,3.438 -2.18,2.292 -3.27,5.507 -3.27,9.644 0,4.281 1.102,7.604 3.306,9.968 2.205,2.364 5.064,3.546 8.578,3.546 3.402,0 6.182,-1.158 8.338,-3.474 2.156,-2.317 3.235,-5.575 3.235,-9.776 0,-0.256 -0.009,-0.639 -0.024,-1.15 h -18.977 c 0.16,-2.796 0.95,-4.936 2.372,-6.421 1.422,-1.486 3.195,-2.229 5.319,-2.229 1.582,0 2.931,0.416 4.05,1.246 1.118,0.831 2.004,2.157 2.659,3.978 m -57.306,-0.599 4.265,0.67 c 0.239,-1.709 0.906,-3.018 2.001,-3.929 1.093,-0.91 2.623,-1.366 4.588,-1.366 1.98,0 3.45,0.404 4.408,1.21 0.959,0.807 1.438,1.753 1.438,2.84 0,0.974 -0.423,1.74 -1.27,2.3 -0.591,0.383 -2.06,0.87 -4.408,1.461 -3.163,0.799 -5.355,1.49 -6.577,2.073 -1.222,0.583 -2.149,1.39 -2.78,2.42 -0.631,1.03 -0.946,2.168 -0.946,3.414 0,1.134 0.259,2.184 0.779,3.151 0.518,0.966 1.225,1.769 2.12,2.408 0.671,0.495 1.585,0.914 2.743,1.258 1.158,0.343 2.4,0.515 3.726,0.515 1.996,0 3.75,-0.288 5.259,-0.863 1.51,-0.575 2.624,-1.353 3.343,-2.336 0.719,-0.982 1.213,-2.296 1.485,-3.941 l -4.217,-0.575 c -0.191,1.309 -0.747,2.332 -1.665,3.067 -0.919,0.734 -2.216,1.102 -3.893,1.102 -1.981,0 -3.395,-0.328 -4.241,-0.983 -0.847,-0.655 -1.27,-1.421 -1.27,-2.3 0,-0.559 0.175,-1.062 0.527,-1.509 0.351,-0.464 0.902,-0.847 1.653,-1.15 0.431,-0.16 1.701,-0.527 3.81,-1.103 3.051,-0.814 5.179,-1.481 6.385,-2 1.206,-0.519 2.152,-1.274 2.839,-2.264 0.687,-0.991 1.031,-2.221 1.031,-3.69 0,-1.438 -0.42,-2.792 -1.258,-4.061 -0.839,-1.27 -2.049,-2.253 -3.63,-2.947 -1.582,-0.695 -3.371,-1.043 -5.367,-1.043 -3.307,0 -5.827,0.687 -7.56,2.061 -1.733,1.373 -2.839,3.41 -3.318,6.11 m -22.181,5.127 c 0,-3.258 0.71,-5.699 2.132,-7.32 1.422,-1.621 3.211,-2.432 5.367,-2.432 2.141,0 3.922,0.815 5.344,2.444 1.421,1.629 2.132,4.113 2.132,7.452 0,3.146 -0.715,5.53 -2.144,7.152 -1.43,1.621 -3.207,2.432 -5.332,2.432 -2.156,0 -3.945,-0.807 -5.367,-2.42 -1.422,-1.614 -2.132,-4.049 -2.132,-7.308 m -4.433,0 c 0,4.712 1.31,8.202 3.93,10.471 2.188,1.884 4.855,2.827 8.002,2.827 3.498,0 6.358,-1.146 8.578,-3.438 2.22,-2.293 3.33,-5.46 3.33,-9.501 0,-3.274 -0.491,-5.85 -1.473,-7.727 -0.982,-1.877 -2.412,-3.334 -4.289,-4.372 -1.877,-1.038 -3.925,-1.558 -6.146,-1.558 -3.562,0 -6.441,1.142 -8.637,3.427 -2.197,2.284 -3.295,5.574 -3.295,9.871 m -8.792,12.723 h 4.313 V -12.77 h -4.313 z m 0,9.68 h 4.313 v -4.96 h -4.313 z m -16.445,-35.126 v 25.446 h 3.882 V 8.817 c 0.99,1.805 1.905,2.995 2.743,3.57 0.839,0.575 1.761,0.863 2.768,0.863 1.453,0 2.931,-0.464 4.432,-1.39 l -1.485,-4.001 c -1.054,0.623 -2.109,0.934 -3.163,0.934 -0.943,0 -1.789,-0.283 -2.54,-0.85 -0.751,-0.567 -1.286,-1.354 -1.605,-2.36 -0.479,-1.534 -0.719,-3.211 -0.719,-5.032 v -13.322 z m -18.77,28.609 3.187,6.708 h 5.655 l -5.272,-6.708 z m -5.103,-15.886 c 0,-3.258 0.71,-5.699 2.132,-7.32 1.422,-1.621 3.211,-2.432 5.367,-2.432 2.141,0 3.922,0.815 5.343,2.444 1.422,1.629 2.133,4.113 2.133,7.452 0,3.146 -0.715,5.53 -2.145,7.152 -1.429,1.621 -3.207,2.432 -5.331,2.432 -2.156,0 -3.945,-0.807 -5.367,-2.42 -1.422,-1.614 -2.132,-4.049 -2.132,-7.308 m -4.433,0 c 0,4.712 1.31,8.202 3.93,10.471 2.188,1.884 4.855,2.827 8.002,2.827 3.499,0 6.358,-1.146 8.578,-3.438 2.22,-2.293 3.33,-5.46 3.33,-9.501 0,-3.274 -0.491,-5.85 -1.473,-7.727 -0.982,-1.877 -2.412,-3.334 -4.289,-4.372 -1.877,-1.038 -3.926,-1.558 -6.146,-1.558 -3.562,0 -6.441,1.142 -8.637,3.427 -2.197,2.284 -3.295,5.574 -3.295,9.871 m -24.061,-5.127 4.265,0.67 c 0.24,-1.709 0.907,-3.018 2.001,-3.929 1.094,-0.91 2.623,-1.366 4.588,-1.366 1.981,0 3.451,0.404 4.409,1.21 0.958,0.807 1.438,1.753 1.438,2.84 0,0.974 -0.424,1.74 -1.27,2.3 -0.591,0.383 -2.061,0.87 -4.409,1.461 -3.163,0.799 -5.355,1.49 -6.577,2.073 -1.222,0.583 -2.149,1.39 -2.779,2.42 -0.631,1.03 -0.947,2.168 -0.947,3.414 0,1.134 0.26,2.184 0.779,3.151 0.519,0.966 1.226,1.769 2.12,2.408 0.671,0.495 1.586,0.914 2.744,1.258 1.158,0.343 2.4,0.515 3.726,0.515 1.996,0 3.749,-0.288 5.259,-0.863 1.509,-0.575 2.623,-1.353 3.342,-2.336 0.719,-0.982 1.214,-2.296 1.485,-3.941 l -4.216,-0.575 c -0.192,1.309 -0.747,2.332 -1.665,3.067 -0.919,0.734 -2.217,1.102 -3.894,1.102 -1.981,0 -3.394,-0.328 -4.241,-0.983 -0.847,-0.655 -1.27,-1.421 -1.27,-2.3 0,-0.559 0.176,-1.062 0.527,-1.509 0.351,-0.464 0.903,-0.847 1.653,-1.15 0.432,-0.16 1.702,-0.527 3.81,-1.103 3.051,-0.814 5.179,-1.481 6.386,-2 1.205,-0.519 2.152,-1.274 2.839,-2.264 0.686,-0.991 1.03,-2.221 1.03,-3.69 0,-1.438 -0.419,-2.792 -1.258,-4.061 -0.839,-1.27 -2.048,-2.253 -3.63,-2.947 -1.581,-0.695 -3.37,-1.043 -5.367,-1.043 -3.306,0 -5.826,0.687 -7.559,2.061 -1.733,1.373 -2.839,3.41 -3.319,6.11 m -24.154,0 4.265,0.67 c 0.239,-1.709 0.906,-3.018 2,-3.929 1.094,-0.91 2.624,-1.366 4.589,-1.366 1.98,0 3.45,0.404 4.408,1.21 0.959,0.807 1.438,1.753 1.438,2.84 0,0.974 -0.424,1.74 -1.27,2.3 -0.591,0.383 -2.061,0.87 -4.409,1.461 -3.162,0.799 -5.355,1.49 -6.577,2.073 -1.222,0.583 -2.148,1.39 -2.779,2.42 -0.631,1.03 -0.946,2.168 -0.946,3.414 0,1.134 0.259,2.184 0.778,3.151 0.519,0.966 1.226,1.769 2.121,2.408 0.671,0.495 1.585,0.914 2.743,1.258 1.158,0.343 2.4,0.515 3.726,0.515 1.997,0 3.75,-0.288 5.259,-0.863 1.51,-0.575 2.624,-1.353 3.343,-2.336 0.718,-0.982 1.213,-2.296 1.485,-3.941 l -4.217,-0.575 c -0.192,1.309 -0.747,2.332 -1.665,3.067 -0.919,0.734 -2.216,1.102 -3.894,1.102 -1.98,0 -3.394,-0.328 -4.241,-0.983 -0.846,-0.655 -1.269,-1.421 -1.269,-2.3 0,-0.559 0.175,-1.062 0.527,-1.509 0.351,-0.464 0.902,-0.847 1.653,-1.15 0.431,-0.16 1.701,-0.527 3.809,-1.103 3.051,-0.814 5.18,-1.481 6.386,-2 1.206,-0.519 2.152,-1.274 2.839,-2.264 0.687,-0.991 1.031,-2.221 1.031,-3.69 0,-1.438 -0.42,-2.792 -1.258,-4.061 -0.839,-1.27 -2.049,-2.253 -3.63,-2.947 -1.582,-0.695 -3.371,-1.043 -5.368,-1.043 -3.306,0 -5.826,0.687 -7.559,2.061 -1.733,1.373 -2.839,3.41 -3.318,6.11 m -21.765,7.571 h 14.208 c -0.192,2.14 -0.735,3.746 -1.629,4.816 -1.374,1.661 -3.155,2.492 -5.343,2.492 -1.981,0 -3.646,-0.663 -4.996,-1.989 -1.35,-1.326 -2.096,-3.099 -2.24,-5.319 m 14.16,-6.972 4.457,-0.551 c -0.703,-2.604 -2.005,-4.625 -3.906,-6.062 -1.901,-1.438 -4.329,-2.157 -7.284,-2.157 -3.722,0 -6.672,1.146 -8.853,3.438 -2.18,2.292 -3.27,5.507 -3.27,9.644 0,4.281 1.102,7.604 3.306,9.968 2.204,2.364 5.064,3.546 8.578,3.546 3.402,0 6.181,-1.158 8.338,-3.474 2.156,-2.317 3.234,-5.575 3.234,-9.776 0,-0.256 -0.008,-0.639 -0.023,-1.15 h -18.977 c 0.16,-2.796 0.95,-4.936 2.372,-6.421 1.422,-1.486 3.195,-2.229 5.319,-2.229 1.582,0 2.931,0.416 4.05,1.246 1.117,0.831 2.004,2.157 2.659,3.978 m -25.442,1.126 4.241,-0.551 c -0.464,-2.923 -1.65,-5.212 -3.558,-6.865 -1.909,-1.653 -4.253,-2.48 -7.033,-2.48 -3.482,0 -6.281,1.138 -8.398,3.415 -2.116,2.276 -3.174,5.538 -3.174,9.787 0,2.747 0.455,5.152 1.366,7.212 0.91,2.061 2.296,3.606 4.157,4.636 1.86,1.031 3.885,1.546 6.073,1.546 2.764,0 5.024,-0.699 6.781,-2.097 1.757,-1.398 2.883,-3.382 3.378,-5.954 l -4.193,-0.647 c -0.399,1.709 -1.106,2.995 -2.12,3.858 -1.015,0.863 -2.24,1.294 -3.678,1.294 -2.172,0 -3.938,-0.779 -5.295,-2.336 -1.358,-1.558 -2.037,-4.022 -2.037,-7.392 0,-3.418 0.655,-5.902 1.965,-7.451 1.31,-1.55 3.019,-2.325 5.127,-2.325 1.693,0 3.107,0.519 4.241,1.558 1.134,1.038 1.853,2.635 2.157,4.792 m -41.606,5.103 h 11.908 l -3.666,9.728 c -1.118,2.955 -1.948,5.382 -2.491,7.284 -0.448,-2.252 -1.078,-4.489 -1.893,-6.709 z m -10.135,-14.424 13.49,35.126 h 5.007 l 14.376,-35.126 h -5.295 l -4.097,10.639 h -14.687 l -3.858,-10.639 z" /></g><g
           transform="translate(728.1173,167.9017)"
           id="g24"><path
             id="path26"
             style="fill:#1354bf;fill-opacity:1;fill-rule:nonzero;stroke:none"
             d="m 0,0 c -2.077,0 -3.903,-0.3 -5.475,-0.9 -1.574,-0.6 -2.931,-1.601 -4.069,-3.001 -1.137,-1.401 -2.042,-3.251 -2.711,-5.552 -0.669,-2.301 -1.105,-5.151 -1.305,-8.552 h 24.205 c 0.068,0.6 0.118,1.216 0.152,1.85 0.033,0.633 0.05,1.216 0.05,1.751 0,4.401 -0.888,7.902 -2.662,10.503 C 6.41,-1.3 3.682,0 0,0 m 20.55,-41.913 c -1.741,-2.468 -4.203,-4.418 -7.385,-5.851 -3.182,-1.434 -6.882,-2.151 -11.102,-2.151 -4.42,0 -8.323,0.65 -11.705,1.951 -3.382,1.3 -6.213,3.133 -8.49,5.501 -2.277,2.367 -4.001,5.235 -5.173,8.603 -1.173,3.366 -1.759,7.118 -1.759,11.253 0,8.936 2.243,15.721 6.73,20.356 4.488,4.635 10.783,6.952 18.887,6.952 2.679,0 5.307,-0.334 7.885,-1 2.579,-0.667 4.872,-1.768 6.882,-3.301 2.009,-1.535 3.633,-3.568 4.872,-6.102 1.238,-2.535 1.858,-5.669 1.858,-9.403 0,-1.134 -0.067,-2.335 -0.201,-3.601 -0.135,-1.267 -0.336,-2.6 -0.605,-4.001 H -13.86 c 0,-2.935 0.386,-5.602 1.159,-8.002 0.774,-2.401 1.951,-4.469 3.533,-6.202 1.58,-1.735 3.548,-3.085 5.903,-4.051 2.354,-0.968 5.147,-1.451 8.376,-1.451 2.623,0 5.062,0.433 7.316,1.301 2.254,0.866 4.053,1.866 5.399,3.001 z m -63.978,5.118 c 0,1.78 -0.668,3.346 -2.001,4.698 -1.335,1.35 -3.001,2.604 -5.002,3.757 -2,1.154 -4.168,2.315 -6.502,3.483 -2.335,1.166 -4.501,2.5 -6.502,4.001 -2,1.5 -3.668,3.266 -5.001,5.301 -1.335,2.034 -2.001,4.484 -2.001,7.352 0,1.934 0.469,3.684 1.409,5.252 0.939,1.566 2.197,2.917 3.773,4.051 1.575,1.133 3.437,2.017 5.584,2.651 2.146,0.633 4.426,0.95 6.843,0.95 2.011,0 3.788,-0.067 5.331,-0.2 1.543,-0.134 2.951,-0.317 4.226,-0.55 1.274,-0.234 2.481,-0.517 3.622,-0.85 1.141,-0.335 2.314,-0.7 3.523,-1.1 v -13.504 h -6.402 v 7.755 l -1.901,2.16 c -0.867,0.197 -1.8,0.359 -2.801,0.491 -1,0.131 -2.067,0.197 -3.201,0.197 -3.201,0 -5.586,-0.61 -7.152,-1.829 -1.567,-1.219 -2.35,-2.751 -2.35,-4.595 0,-1.779 0.665,-3.328 2,-4.645 1.333,-1.319 3.001,-2.554 5.002,-3.708 2,-1.153 4.167,-2.296 6.502,-3.429 2.333,-1.135 4.501,-2.418 6.502,-3.851 2,-1.435 3.666,-3.085 5.001,-4.951 1.333,-1.868 2.001,-4.102 2.001,-6.702 0,-2.401 -0.554,-4.536 -1.66,-6.402 -1.107,-1.868 -2.615,-3.451 -4.525,-4.752 -1.912,-1.3 -4.158,-2.3 -6.738,-3.001 -2.582,-0.7 -5.314,-1.05 -8.196,-1.05 -3.218,0 -6.352,0.417 -9.403,1.25 -3.051,0.833 -5.447,1.817 -7.19,2.951 v 13.104 h 6.402 v -7.474 l 2.001,-2.066 c 0.866,-0.657 1.9,-1.18 3.101,-1.574 1.2,-0.394 2.766,-0.589 4.701,-0.589 3.201,0 5.835,0.658 7.903,1.977 2.066,1.319 3.101,3.132 3.101,5.441 m -64.611,-6.418 c 1.6,0 3.033,0.25 4.301,0.75 1.266,0.5 2.384,1.133 3.351,1.901 0.966,0.766 1.801,1.616 2.501,2.551 0.7,0.933 1.283,1.833 1.75,2.7 v 11.904 c -4.335,0 -7.852,-0.284 -10.553,-0.85 -2.701,-0.568 -4.819,-1.318 -6.352,-2.251 -1.535,-0.935 -2.585,-2.051 -3.151,-3.351 -0.567,-1.3 -0.85,-2.685 -0.85,-4.151 0,-3.001 0.8,-5.286 2.401,-6.852 1.6,-1.568 3.801,-2.351 6.602,-2.351 m 22.106,8.302 c 0,-1.534 0.033,-3.085 0.1,-4.651 0.066,-1.568 0.166,-2.985 0.3,-4.251 h 6.702 v -5.002 h -15.987 l -1.018,9.503 h -0.5 c -0.334,-1.335 -0.95,-2.635 -1.85,-3.901 -0.901,-1.268 -2.035,-2.401 -3.401,-3.401 -1.368,-1 -2.986,-1.801 -4.852,-2.401 -1.868,-0.6 -3.935,-0.9 -6.202,-0.9 -2.268,0 -4.351,0.334 -6.252,1 -1.9,0.666 -3.551,1.601 -4.951,2.801 -1.401,1.201 -2.485,2.651 -3.251,4.351 -0.768,1.701 -1.15,3.617 -1.15,5.752 0,3.267 0.682,5.968 2.05,8.103 1.366,2.133 3.384,3.816 6.052,5.051 2.666,1.233 6.002,2.116 10.003,2.651 4.001,0.533 8.668,0.833 14.004,0.9 0.133,1.055 0.2,2.062 0.2,3.018 v 2.82 c 0,4.09 -0.7,7.207 -2.1,9.351 -1.401,2.144 -3.902,3.217 -7.503,3.217 -1.334,0 -2.768,-0.066 -4.301,-0.197 -1.535,-0.132 -2.935,-0.524 -4.201,-1.177 v -9.03 h -9.003 V -0.2 c 2.413,1.266 5.263,2.401 8.548,3.401 3.285,1 7.14,1.5 11.564,1.5 3.822,0 6.89,-0.484 9.203,-1.45 2.313,-0.968 4.089,-2.235 5.33,-3.801 1.239,-1.568 2.044,-3.336 2.413,-5.302 0.369,-1.968 0.553,-3.918 0.553,-5.852 0,-4.201 -0.084,-8.219 -0.25,-12.053 -0.167,-3.836 -0.25,-7.552 -0.25,-11.154 m -58.209,4.502 h 6.402 v -15.705 c -2.068,-1.135 -4.801,-2.068 -8.202,-2.801 -3.401,-0.733 -6.77,-1.1 -10.103,-1.1 -6.136,0 -11.638,0.7 -16.505,2.101 -4.869,1.4 -8.987,3.583 -12.354,6.551 -3.368,2.967 -5.952,6.718 -7.752,11.254 -1.801,4.534 -2.701,9.969 -2.701,16.305 0,6.535 1,12.086 3.001,16.655 2.001,4.567 4.701,8.302 8.102,11.203 3.401,2.901 7.335,5.017 11.804,6.352 4.467,1.333 9.168,2.001 14.104,2.001 2.401,0 4.567,-0.085 6.502,-0.251 1.934,-0.167 3.684,-0.417 5.252,-0.75 1.566,-0.334 3.016,-0.734 4.351,-1.2 1.333,-0.467 2.634,-0.967 3.901,-1.501 V 1.6 h -6.402 v 10.503 l -1.4,2.001 c -0.735,0.333 -1.885,0.733 -3.451,1.201 -1.568,0.465 -4.086,0.7 -7.552,0.7 -3.602,0 -6.97,-0.568 -10.103,-1.701 -3.136,-1.135 -5.852,-2.901 -8.153,-5.301 -2.301,-2.401 -4.118,-5.486 -5.452,-9.253 -1.334,-3.768 -2,-8.287 -2,-13.554 0,-9.537 2.416,-16.89 7.252,-22.057 4.834,-5.169 11.619,-7.752 20.356,-7.752 2.401,0 4.417,0.183 6.052,0.55 1.633,0.366 2.851,0.85 3.651,1.45 l 1.4,1.901 z" /></g><g
           transform="translate(491.9448,128.1897)"
           id="g28"><path
             id="path30"
             style="fill:#1354bf;fill-opacity:1;fill-rule:nonzero;stroke:none"
             d="m 0,0 c -2.543,-3.601 -5.788,-5.402 -9.734,-5.402 -3.145,0 -5.805,0.583 -7.979,1.751 -2.176,1.166 -3.948,2.751 -5.319,4.751 -1.372,2.001 -2.358,4.367 -2.96,7.102 -0.603,2.734 -0.904,5.702 -0.904,8.903 0,7.868 1.304,13.604 3.914,17.205 2.609,3.601 6.121,5.402 10.538,5.402 2.943,0 5.434,-0.567 7.475,-1.701 C -2.927,36.877 -1.255,35.293 0.05,33.26 1.354,31.225 2.307,28.824 2.91,26.058 3.512,23.29 3.814,20.306 3.814,17.105 3.814,9.303 2.541,3.601 0,0 m 13.47,28.358 c -1.032,3.367 -2.614,6.235 -4.744,8.603 -2.13,2.366 -4.876,4.201 -8.237,5.502 -3.36,1.3 -7.371,1.95 -12.03,1.95 -3.995,0 -7.638,-0.6 -10.933,-1.8 -3.295,-1.201 -6.091,-2.951 -8.387,-5.252 -2.297,-2.301 -4.078,-5.151 -5.342,-8.552 -1.264,-3.401 -1.896,-7.303 -1.896,-11.704 0,-4.135 0.531,-7.869 1.597,-11.203 1.065,-3.336 2.695,-6.186 4.893,-8.553 2.195,-2.368 4.957,-4.201 8.286,-5.501 3.328,-1.301 7.256,-1.951 11.782,-1.951 4.061,0 7.738,0.6 11.033,1.801 3.295,1.2 6.089,2.95 8.385,5.251 2.296,2.301 4.061,5.134 5.293,8.503 1.231,3.366 1.847,7.252 1.847,11.653 0,4.134 -0.516,7.885 -1.547,11.253" /></g><g
           transform="translate(443.2674,125.589)"
           id="g32"><path
             id="path34"
             style="fill:#1354bf;fill-opacity:1;fill-rule:nonzero;stroke:none"
             d="m 0,0 c -1.5,-0.735 -3.285,-1.1 -5.352,-1.1 -2.4,0 -4.135,0.866 -5.201,2.6 -1.068,1.734 -1.601,4.702 -1.601,8.903 V 39.612 H 4.451 v 6.402 H -12.154 V 58.518 H -22.657 V 46.014 h -8.902 v -6.402 h 8.902 V 7.402 c 0,-5.336 1.183,-9.153 3.551,-11.453 2.367,-2.301 5.785,-3.451 10.253,-3.451 1.734,0 3.417,0.2 5.052,0.6 1.633,0.4 3.116,0.9 4.451,1.5 1.333,0.601 2.517,1.251 3.551,1.951 1.033,0.7 1.851,1.35 2.451,1.951 L 4.151,2.401 C 2.884,1.533 1.5,0.733 0,0" /></g><g
           transform="translate(403.7751,150.7965)"
           id="g36"><path
             id="path38"
             style="fill:#1354bf;fill-opacity:1;fill-rule:nonzero;stroke:none"
             d="m 0,0 c 0,4.334 -0.417,7.902 -1.25,10.703 -0.835,2.801 -2.035,5.035 -3.601,6.702 -1.568,1.666 -3.519,2.817 -5.852,3.451 -2.335,0.633 -5.002,0.951 -8.003,0.951 -4.201,0 -7.786,-1.101 -10.753,-3.301 -2.968,-2.201 -5.219,-4.902 -6.752,-8.103 h -0.1 v 10.403 h -17.905 v -5.001 h 7.402 v -42.513 h -7.402 v -5.001 h 24.507 v 5.001 h -6.602 V 4.101 c 0.466,1.466 1.15,2.867 2.051,4.201 0.9,1.334 1.966,2.501 3.201,3.501 1.233,1.001 2.633,1.801 4.201,2.401 1.566,0.6 3.284,0.9 5.152,0.9 4.266,0 7.202,-1.467 8.802,-4.401 1.601,-2.935 2.401,-7.036 2.401,-12.303 v -25.108 h -6.602 v -5.001 H 7.402 v 5.001 H 0 Z" /></g><g
           transform="translate(325.2482,132.591)"
           id="g40"><path
             id="path42"
             style="fill:#1354bf;fill-opacity:1;fill-rule:nonzero;stroke:none"
             d="m 0,0 c -0.467,-0.867 -1.05,-1.768 -1.75,-2.701 -0.701,-0.934 -1.535,-1.785 -2.501,-2.551 -0.968,-0.767 -2.085,-1.4 -3.351,-1.9 -1.268,-0.5 -2.701,-0.75 -4.302,-0.75 -2.8,0 -5.001,0.783 -6.601,2.35 -1.601,1.566 -2.401,3.851 -2.401,6.852 0,1.466 0.283,2.851 0.85,4.152 0.566,1.3 1.616,2.416 3.151,3.351 1.533,0.933 3.651,1.683 6.352,2.25 2.701,0.566 6.217,0.851 10.553,0.851 z m 10.303,-4.251 c -0.067,1.566 -0.1,3.116 -0.1,4.651 0,3.601 0.083,7.318 0.25,11.153 0.166,3.834 0.25,7.853 0.25,12.054 0,1.933 -0.184,3.884 -0.553,5.852 -0.369,1.966 -1.174,3.734 -2.413,5.301 -1.241,1.566 -3.017,2.834 -5.33,3.801 -2.313,0.966 -5.381,1.451 -9.203,1.451 -4.424,0 -8.279,-0.5 -11.564,-1.5 -3.286,-1.001 -6.135,-2.135 -8.548,-3.402 V 24.007 h 9.003 v 9.029 c 1.266,0.654 2.666,1.046 4.201,1.177 1.533,0.132 2.967,0.197 4.301,0.197 3.601,0 6.102,-1.072 7.502,-3.216 C -0.5,29.049 0.2,25.933 0.2,21.842 V 19.023 C 0.2,18.066 0.133,17.06 0,16.005 c -5.336,-0.067 -10.003,-0.367 -14.004,-0.901 -4.001,-0.534 -7.337,-1.417 -10.003,-2.65 -2.668,-1.235 -4.686,-2.918 -6.052,-5.052 -1.368,-2.135 -2.051,-4.836 -2.051,-8.102 0,-2.135 0.383,-4.051 1.151,-5.752 0.766,-1.701 1.85,-3.151 3.251,-4.351 1.4,-1.201 3.051,-2.135 4.951,-2.801 1.901,-0.666 3.984,-1 6.252,-1 2.266,0 4.334,0.3 6.202,0.9 1.866,0.6 3.484,1.4 4.851,2.401 1.366,1 2.501,2.133 3.401,3.401 0.901,1.266 1.517,2.566 1.851,3.901 h 0.5 l 1.018,-9.503 h 15.987 v 5.001 h -6.702 c -0.134,1.266 -0.234,2.684 -0.3,4.252" /></g><g
           transform="translate(274.1738,180.6052)"
           id="g44"><path
             id="path46"
             style="fill:#1354bf;fill-opacity:1;fill-rule:nonzero;stroke:none"
             d="M 0,0 V -10.803 H 6.402 V 6.402 C 5.976,6.585 5.516,6.753 5.057,6.922 2.729,5.57 0.224,4.188 -2.427,2.794 -2.136,2.7 -1.848,2.605 -1.6,2.501 Z" /></g><g
           transform="translate(260.1696,190.3083)"
           id="g48"><path
             id="path50"
             style="fill:#1354bf;fill-opacity:1;fill-rule:nonzero;stroke:none"
             d="m 0,0 c -1.052,0 -2.064,-0.042 -3.053,-0.107 0,0 0,0 0,0 -5.91,-0.39 -10.72,-1.93 -14.4,-4.64 -1.52,-1.13 -2.76,-2.41 -3.75,-3.84 l 0.004,-0.005 c -1.28,-1.866 -2.093,-4.003 -2.46,-6.399 3.733,1.376 7.906,3.037 12.497,5.017 0.442,0.592 0.958,1.135 1.559,1.621 2,1.618 4.679,2.521 8.03,2.711 3.831,1.811 7.295,3.548 10.391,5.187 C 6.194,-0.154 3.26,0 0,0" /></g><g
           transform="translate(281.426,147.0954)"
           id="g52"><path
             id="path54"
             style="fill:#1354bf;fill-opacity:1;fill-rule:nonzero;stroke:none"
             d="m 0,0 c -1.835,2.466 -4.118,4.584 -6.852,6.352 -2.735,1.766 -5.702,3.334 -8.903,4.701 -3.201,1.366 -6.169,2.784 -8.902,4.252 -2.736,1.466 -5.019,3.116 -6.852,4.951 -1.333,1.331 -2.174,2.903 -2.538,4.709 -3.698,-1.52 -7.279,-2.901 -10.662,-4.107 0.441,-1.987 1.201,-3.742 2.296,-5.253 1.834,-2.535 4.117,-4.702 6.852,-6.502 2.734,-1.801 5.702,-3.369 8.903,-4.702 3.201,-1.334 6.167,-2.701 8.903,-4.101 2.733,-1.4 5.017,-3.001 6.852,-4.801 1.833,-1.801 2.751,-4.069 2.751,-6.802 0,-2.135 -0.435,-3.969 -1.301,-5.502 -0.867,-1.535 -2.068,-2.801 -3.601,-3.801 -1.535,-1.001 -3.318,-1.751 -5.352,-2.251 -2.035,-0.5 -4.251,-0.75 -6.652,-0.75 -2.535,0 -4.851,0.283 -6.952,0.85 -2.1,0.566 -3.751,1.283 -4.951,2.151 l -1.801,2.401 v 11.903 h -6.402 v -18.205 c 1.601,-1.135 4.135,-2.201 7.603,-3.201 3.466,-1.001 7.568,-1.501 12.303,-1.501 8.669,0 15.505,1.716 20.507,5.152 5.001,3.434 7.502,8.385 7.502,14.854 C 2.751,-5.536 1.833,-2.468 0,0" /></g><g
           transform="translate(285.3207,199.7875)"
           id="g56"><path
             id="path58"
             style="fill:#5cba23;fill-opacity:1;fill-rule:nonzero;stroke:none"
             d="m 0,0 c -3.287,-2.459 -8.71,-5.899 -16.333,-9.934 -3.096,-1.639 -6.56,-3.377 -10.391,-5.187 -1.538,-0.727 -3.121,-1.463 -4.778,-2.212 -1.655,-0.748 -3.251,-1.448 -4.811,-2.12 -4.591,-1.98 -8.764,-3.641 -12.498,-5.017 -7.392,-2.725 -13.066,-4.344 -16.79,-5.103 0.086,0.064 0.183,0.134 0.272,0.2 10e-4,0.001 10e-4,0.001 0.002,0.001 0.299,0.224 0.621,0.457 0.955,0.696 0.065,0.047 0.131,0.093 0.197,0.14 0.247,0.176 0.509,0.358 0.775,0.541 0.164,0.113 0.328,0.227 0.5,0.343 0.169,0.115 0.346,0.233 0.522,0.35 0.247,0.166 0.494,0.331 0.754,0.501 3.704,2.427 8.783,5.402 15.274,8.73 0.984,1.434 2.222,2.719 3.744,3.84 3.684,2.713 8.489,4.255 14.399,4.645 10.048,4.294 18.05,7.038 23.723,8.6 0.433,0.119 0.851,0.231 1.258,0.337 0.042,0.011 0.085,0.022 0.127,0.033 0.365,0.094 0.719,0.184 1.062,0.268 0.136,0.033 0.267,0.064 0.399,0.095 0.255,0.061 0.51,0.122 0.752,0.177 0.384,0.087 0.758,0.168 1.108,0.24 C 0.153,0.111 0.071,0.053 0,0 M 10.656,3.09 C 10.648,3.2 10.639,3.31 10.622,3.419 10.603,3.547 10.575,3.674 10.544,3.802 10.524,3.885 10.508,3.97 10.483,4.053 10.419,4.267 10.343,4.48 10.247,4.693 10.153,4.902 10.044,5.097 9.928,5.284 9.891,5.344 9.849,5.401 9.809,5.459 9.725,5.583 9.636,5.701 9.541,5.814 9.489,5.876 9.438,5.937 9.383,5.995 9.282,6.102 9.174,6.202 9.063,6.299 9.008,6.346 8.958,6.397 8.901,6.442 8.742,6.566 8.572,6.68 8.392,6.785 8.303,6.837 8.206,6.882 8.111,6.93 8.005,6.983 7.899,7.035 7.786,7.083 7.671,7.131 7.551,7.176 7.429,7.219 7.329,7.253 7.225,7.285 7.12,7.315 6.98,7.356 6.84,7.398 6.691,7.431 6.636,7.444 6.575,7.452 6.519,7.463 6.16,7.536 5.774,7.589 5.363,7.622 5.298,7.627 5.237,7.634 5.171,7.639 4.953,7.653 4.725,7.659 4.493,7.662 4.419,7.663 4.344,7.664 4.268,7.664 4.018,7.663 3.762,7.659 3.495,7.647 3.49,7.647 3.485,7.647 3.481,7.646 2.574,7.605 1.565,7.492 0.454,7.314 0.421,7.308 0.388,7.303 0.355,7.298 -1.816,6.943 -4.374,6.339 -7.406,5.471 -15.567,3.133 -25.992,-0.834 -36.758,-5.698 c -10.767,-4.864 -20.633,-10.064 -27.783,-14.643 -3.817,-2.445 -6.596,-4.523 -8.475,-6.375 -0.024,-0.024 -0.046,-0.047 -0.07,-0.07 -0.328,-0.327 -0.628,-0.647 -0.9,-0.961 -0.038,-0.043 -0.077,-0.087 -0.114,-0.131 -0.136,-0.16 -0.266,-0.319 -0.387,-0.476 -0.031,-0.04 -0.058,-0.08 -0.088,-0.119 -0.2,-0.266 -0.379,-0.528 -0.537,-0.786 -0.051,-0.082 -0.101,-0.165 -0.148,-0.247 -0.071,-0.126 -0.142,-0.252 -0.204,-0.376 -0.087,-0.175 -0.165,-0.349 -0.233,-0.522 -0.04,-0.101 -0.071,-0.202 -0.104,-0.302 -0.041,-0.122 -0.076,-0.244 -0.106,-0.365 -0.022,-0.087 -0.047,-0.174 -0.063,-0.259 -0.037,-0.19 -0.06,-0.378 -0.073,-0.564 -0.004,-0.071 -0.005,-0.142 -0.006,-0.213 -0.004,-0.164 0.002,-0.328 0.018,-0.491 0.004,-0.043 0.004,-0.087 0.009,-0.129 0.026,-0.203 0.069,-0.403 0.123,-0.603 0.014,-0.052 0.029,-0.103 0.045,-0.155 0.063,-0.206 0.135,-0.412 0.228,-0.617 v 0 c 0.102,-0.224 0.219,-0.431 0.344,-0.63 0.038,-0.059 0.079,-0.114 0.118,-0.171 0.099,-0.142 0.204,-0.277 0.317,-0.404 0.045,-0.051 0.089,-0.104 0.137,-0.153 0.16,-0.165 0.329,-0.321 0.516,-0.461 1.042,-0.776 2.514,-1.162 4.524,-1.162 2.779,0 6.586,0.739 11.698,2.203 2.867,0.821 6.026,1.854 9.369,3.046 3.382,1.205 6.963,2.587 10.661,4.106 3.049,1.254 6.166,2.59 9.322,4.016 5.307,2.398 10.394,4.877 15.046,7.324 2.651,1.394 5.156,2.776 7.484,4.128 1.873,1.088 3.635,2.156 5.252,3.191 5.648,3.618 9.041,6.436 10.561,8.899 v 0 c 0,0.001 0,0.001 0,0.001 0.509,0.826 0.806,1.612 0.905,2.373 0.009,0.065 0.019,0.131 0.025,0.196 0.011,0.132 0.015,0.264 0.014,0.395 0,0.099 -0.004,0.197 -0.011,0.295" /></g><g
           transform="translate(193.5863,62.1388)"
           id="g60"><path
             id="path62"
             style="fill:#5cba23;fill-opacity:1;fill-rule:nonzero;stroke:none"
             d="M 0,0 C 0,-1.257 -1.019,-2.277 -2.277,-2.277 H -55.24 c -1.258,0 -2.277,1.02 -2.277,2.277 v 99.653 c 0,1.258 1.02,2.277 2.277,2.277 H -2.277 C -1.02,101.93 0,100.911 0,99.653 Z m -28.759,-20.629 c -3.275,0 -5.931,2.656 -5.931,5.931 0,3.276 2.656,5.931 5.931,5.931 3.276,0 5.931,-2.655 5.931,-5.931 0,-3.275 -2.655,-5.931 -5.931,-5.931 M -2.414,111.93 h -52.69 c -6.855,0 -12.413,-5.558 -12.413,-12.414 V -12.76 c 0,-6.855 5.558,-12.413 12.413,-12.413 h 52.69 C 4.442,-25.173 10,-19.615 10,-12.76 V 99.516 c 0,6.856 -5.558,12.414 -12.414,12.414" /></g><g
           transform="translate(101.6769,115.2905)"
           id="g64"><path
             id="path66"
             style="fill:#5cba23;fill-opacity:1;fill-rule:nonzero;stroke:none"
             d="M 0,0 C 4.327,0.959 8.097,-2.811 7.138,-7.138 6.655,-9.318 4.895,-11.077 2.715,-11.561 -1.612,-12.52 -5.382,-8.75 -4.423,-4.423 -3.94,-2.243 -2.18,-0.483 0,0 m 27.702,120.847 h -52.689 c -6.856,0 -12.414,-5.557 -12.414,-12.413 V -3.842 c 0,-6.856 5.558,-12.414 12.414,-12.414 h 40 V 6.64 h -40.137 c -1.257,0 -2.277,1.02 -2.277,2.277 v 99.653 c 0,1.258 1.02,2.277 2.277,2.277 H -6.091 L -8.987,72.572 H 4.254 L -8.987,28.916 18.737,81.261 H 4.875 l 10.758,29.586 h 12.206 c 1.258,0 2.277,-1.019 2.277,-2.277 V 68.709 h 10 v 39.725 c 0,6.856 -5.558,12.413 -12.414,12.413" /></g><g
           transform="translate(192.6978,211.8824)"
           id="g68"><path
             id="path70"
             style="fill:#5cba23;fill-opacity:1;fill-rule:nonzero;stroke:none"
             d="m 0,0 c -2.189,3.787 -5.756,9.022 -11.318,14.049 -10.962,9.904 -26.207,13.103 -26.207,13.103 4.206,-3.997 10.855,-11.494 14.482,-22.759 1.441,-4.472 2.1,-8.594 2.37,-12.067 l -8.8,-3.267 27.213,-12.253 12.626,27.042 z" /></g><g
           transform="translate(74.5233,59.0722)"
           id="g72"><path
             id="path74"
             style="fill:#5cba23;fill-opacity:1;fill-rule:nonzero;stroke:none"
             d="M 0,0 C 2.3,-3.72 6.021,-8.848 11.73,-13.707 22.981,-23.282 38.314,-26.028 38.314,-26.028 33.991,-22.157 27.122,-14.86 23.163,-3.708 21.591,0.72 20.809,4.82 20.436,8.283 L 29.135,11.81 1.571,23.251 -10.247,-4.154 Z" /></g></g></g></g></svg>